<svg height="145" viewBox="0 0 120 145" width="120" xmlns="http://www.w3.org/2000/svg" xmlns:xlink="http://www.w3.org/1999/xlink"><radialGradient id="a" cx="105" cy="40" gradientUnits="userSpaceOnUse" r="135"><stop offset="0" stop-color="#60a5fa"/><stop offset="1" stop-color="#2563eb"/></radialGradient><linearGradient id="b" gradientUnits="userSpaceOnUse" x1="80" x2="120" y1="100" y2="60"><stop offset="0" stop-color="#dbeafe"/><stop offset="1" stop-color="#93c5fd"/></linearGradient><linearGradient id="c" gradientUnits="userSpaceOnUse" x2="40" y1="135" y2="95"><stop offset="0" stop-color="#93c5fd"/><stop offset="1" stop-color="#dbeafe"/></linearGradient><linearGradient id="d" gradientUnits="userSpaceOnUse" x1="25" x2="95" y1="52.5" y2="52.5"><stop offset="0" stop-color="#1e40af"/><stop offset="1" stop-color="#3b82f6"/></linearGradient><linearGradient id="e" gradientUnits="userSpaceOnUse" x1="25" x2="95" y1="17.5" y2="17.5"><stop offset="0" stop-color="#3b82f6"/><stop offset="1" stop-color="#1e40af"/></linearGradient><path d="m10 35h100v110h-100z" fill="url(#a)"/><path d="m120 90-40 10v-30l40-10z" fill="url(#b)"/><path d="m40 125-40 10v-30l40-10z" fill="url(#c)"/><path d="m60 60c-13.8 0-25-11.2-25-25h-10c0 19.3 15.7 35 35 35s35-15.7 35-35h-10c0 13.8-11.2 25-25 25z" fill="url(#d)"/><path d="m60 10c13.8 0 25 11.2 25 25h10c0-19.3-15.7-35-35-35s-35 15.7-35 35h10c0-13.8 11.2-25 25-25z" fill="url(#e)"/></svg>